<mxfile host="app.diagrams.net" agent="Mozilla/5.0 (Windows NT 10.0; Win64; x64) AppleWebKit/537.36 (KHTML, like Gecko) Chrome/137.0.0.0 Safari/537.36" version="27.1.3">
  <diagram name="Page-1" id="M-fkLPSFl45U8APm1iHO">
    <mxGraphModel dx="2101" dy="1760" grid="1" gridSize="10" guides="1" tooltips="1" connect="1" arrows="1" fold="1" page="1" pageScale="1" pageWidth="850" pageHeight="1100" math="0" shadow="0">
      <root>
        <mxCell id="0" />
        <mxCell id="1" parent="0" />
        <mxCell id="hykJHlLSEJo6_kBuwjio-1" value="&lt;b&gt;Elastic Search&lt;/b&gt;" style="shape=cylinder3;whiteSpace=wrap;html=1;boundedLbl=1;backgroundOutline=1;size=15;fillColor=#dae8fc;gradientColor=#7ea6e0;strokeColor=#6c8ebf;" vertex="1" parent="1">
          <mxGeometry x="640" y="162.5" width="110" height="135" as="geometry" />
        </mxCell>
        <mxCell id="hykJHlLSEJo6_kBuwjio-2" value="" style="rounded=0;whiteSpace=wrap;html=1;fillColor=#f8cecc;gradientColor=#ea6b66;strokeColor=#b85450;" vertex="1" parent="1">
          <mxGeometry x="-40" y="130" width="320" height="180" as="geometry" />
        </mxCell>
        <mxCell id="hykJHlLSEJo6_kBuwjio-5" style="edgeStyle=orthogonalEdgeStyle;rounded=0;orthogonalLoop=1;jettySize=auto;html=1;" edge="1" parent="1" source="hykJHlLSEJo6_kBuwjio-3" target="hykJHlLSEJo6_kBuwjio-4">
          <mxGeometry relative="1" as="geometry" />
        </mxCell>
        <mxCell id="hykJHlLSEJo6_kBuwjio-3" value="&lt;b&gt;Agents&lt;/b&gt;" style="ellipse;whiteSpace=wrap;html=1;" vertex="1" parent="1">
          <mxGeometry x="170" y="200" width="90" height="60" as="geometry" />
        </mxCell>
        <mxCell id="hykJHlLSEJo6_kBuwjio-4" value="" style="sketch=0;html=1;aspect=fixed;strokeColor=none;shadow=0;fillColor=#3B8DF1;verticalAlign=top;labelPosition=center;verticalLabelPosition=bottom;shape=mxgraph.gcp2.files" vertex="1" parent="1">
          <mxGeometry x="-10" y="181.5" width="100" height="97" as="geometry" />
        </mxCell>
        <mxCell id="hykJHlLSEJo6_kBuwjio-7" style="edgeStyle=orthogonalEdgeStyle;rounded=0;orthogonalLoop=1;jettySize=auto;html=1;entryX=0;entryY=0.5;entryDx=0;entryDy=0;entryPerimeter=0;" edge="1" parent="1" source="hykJHlLSEJo6_kBuwjio-3" target="hykJHlLSEJo6_kBuwjio-1">
          <mxGeometry relative="1" as="geometry" />
        </mxCell>
        <mxCell id="hykJHlLSEJo6_kBuwjio-8" value="&lt;b&gt;ELK Admin&lt;/b&gt;" style="text;html=1;align=center;verticalAlign=middle;resizable=0;points=[];autosize=1;strokeColor=none;fillColor=none;" vertex="1" parent="1">
          <mxGeometry x="750" y="215" width="90" height="30" as="geometry" />
        </mxCell>
        <mxCell id="hykJHlLSEJo6_kBuwjio-9" value="" style="shadow=0;dashed=0;html=1;strokeColor=none;fillColor=#4495D1;labelPosition=center;verticalLabelPosition=bottom;verticalAlign=top;align=center;outlineConnect=0;shape=mxgraph.veeam.2d.web_ui;" vertex="1" parent="1">
          <mxGeometry x="630" y="-20" width="130" height="100" as="geometry" />
        </mxCell>
        <mxCell id="hykJHlLSEJo6_kBuwjio-10" value="&lt;b&gt;Kibana&lt;/b&gt;" style="text;html=1;align=center;verticalAlign=middle;resizable=0;points=[];autosize=1;strokeColor=none;fillColor=none;" vertex="1" parent="1">
          <mxGeometry x="720" y="90" width="60" height="30" as="geometry" />
        </mxCell>
        <mxCell id="hykJHlLSEJo6_kBuwjio-11" style="edgeStyle=orthogonalEdgeStyle;rounded=0;orthogonalLoop=1;jettySize=auto;html=1;entryX=0.5;entryY=0;entryDx=0;entryDy=0;entryPerimeter=0;" edge="1" parent="1" source="hykJHlLSEJo6_kBuwjio-9" target="hykJHlLSEJo6_kBuwjio-1">
          <mxGeometry relative="1" as="geometry" />
        </mxCell>
        <mxCell id="hykJHlLSEJo6_kBuwjio-13" style="edgeStyle=orthogonalEdgeStyle;rounded=0;orthogonalLoop=1;jettySize=auto;html=1;" edge="1" parent="1" source="hykJHlLSEJo6_kBuwjio-12" target="hykJHlLSEJo6_kBuwjio-9">
          <mxGeometry relative="1" as="geometry" />
        </mxCell>
        <mxCell id="hykJHlLSEJo6_kBuwjio-12" value="" style="html=1;verticalLabelPosition=bottom;align=center;labelBackgroundColor=#ffffff;verticalAlign=top;strokeWidth=2;strokeColor=#0080F0;shadow=0;dashed=0;shape=mxgraph.ios7.icons.user;" vertex="1" parent="1">
          <mxGeometry x="390" y="-5" width="80" height="70" as="geometry" />
        </mxCell>
        <mxCell id="hykJHlLSEJo6_kBuwjio-14" value="&lt;b&gt;User&lt;/b&gt;" style="text;html=1;align=center;verticalAlign=middle;resizable=0;points=[];autosize=1;strokeColor=none;fillColor=none;" vertex="1" parent="1">
          <mxGeometry x="400" y="78" width="50" height="30" as="geometry" />
        </mxCell>
        <mxCell id="hykJHlLSEJo6_kBuwjio-15" value="&lt;b&gt;File beat&lt;/b&gt;&lt;div&gt;&lt;b&gt;FluentD&lt;/b&gt;&lt;/div&gt;" style="text;html=1;align=center;verticalAlign=middle;resizable=0;points=[];autosize=1;strokeColor=none;fillColor=none;" vertex="1" parent="1">
          <mxGeometry x="170" y="270" width="70" height="40" as="geometry" />
        </mxCell>
        <mxCell id="hykJHlLSEJo6_kBuwjio-16" value="" style="rounded=1;whiteSpace=wrap;html=1;fillColor=#d5e8d4;gradientColor=#97d077;strokeColor=#82b366;" vertex="1" parent="1">
          <mxGeometry x="350" y="147.5" width="220" height="165" as="geometry" />
        </mxCell>
        <mxCell id="hykJHlLSEJo6_kBuwjio-17" value="&lt;b&gt;I/P&lt;/b&gt;" style="rounded=0;whiteSpace=wrap;html=1;" vertex="1" parent="1">
          <mxGeometry x="365" y="205" width="55" height="35" as="geometry" />
        </mxCell>
        <mxCell id="hykJHlLSEJo6_kBuwjio-19" value="&lt;b&gt;Filter&lt;/b&gt;" style="rounded=0;whiteSpace=wrap;html=1;" vertex="1" parent="1">
          <mxGeometry x="440" y="205" width="55" height="35" as="geometry" />
        </mxCell>
        <mxCell id="hykJHlLSEJo6_kBuwjio-20" value="&lt;b&gt;O/P&lt;/b&gt;" style="rounded=0;whiteSpace=wrap;html=1;" vertex="1" parent="1">
          <mxGeometry x="510" y="202.5" width="55" height="35" as="geometry" />
        </mxCell>
        <mxCell id="hykJHlLSEJo6_kBuwjio-21" value="&lt;b&gt;Logstash&lt;/b&gt;" style="text;html=1;align=center;verticalAlign=middle;resizable=0;points=[];autosize=1;strokeColor=none;fillColor=none;" vertex="1" parent="1">
          <mxGeometry x="420" y="151.5" width="80" height="30" as="geometry" />
        </mxCell>
      </root>
    </mxGraphModel>
  </diagram>
</mxfile>
